<?xml version="1.0" standalone="no"?>
<!DOCTYPE svg PUBLIC "-//W3C//DTD SVG 20010904//EN"
 "http://www.w3.org/TR/2001/REC-SVG-20010904/DTD/svg10.dtd">
<svg version="1.0" xmlns="http://www.w3.org/2000/svg"
 width="200.000000pt" height="200.000000pt" viewBox="0 0 200.000000 200.000000"
 preserveAspectRatio="xMidYMid meet">

<g transform="translate(0.000000,200.000000) scale(0.100000,-0.100000)"
fill="#000000" stroke="none">
<path d="M813 1913 c-27 -5 -26 -3 -12 -94 l12 -69 122 0 c156 0 211 -11 312
-60 148 -73 287 -226 350 -385 25 -64 27 -82 28 -205 0 -74 -3 -143 -7 -152
-6 -16 -14 -15 -93 12 -55 19 -85 25 -84 17 0 -7 28 -97 63 -202 53 -161 65
-190 82 -189 21 0 364 191 364 202 0 4 -39 22 -86 41 -47 19 -87 38 -90 43 -3
5 0 73 7 152 11 128 11 153 -5 231 -32 165 -106 298 -236 425 -130 128 -265
194 -452 225 -87 14 -224 18 -275 8z"/>
<path d="M608 1861 c-44 -18 -118 -59 -118 -66 0 -7 73 -126 80 -130 14 -9
150 57 150 72 0 8 -8 44 -17 79 -19 72 -22 73 -95 45z"/>
<path d="M374 1712 c-34 -27 -115 -123 -112 -132 2 -4 28 -28 59 -53 l56 -46
62 63 61 62 -46 59 c-25 33 -49 61 -52 62 -4 2 -17 -5 -28 -15z"/>
<path d="M854 1530 c-14 -5 -25 -24 -33 -54 -9 -39 -17 -49 -52 -67 -39 -19
-43 -20 -80 -5 -59 24 -71 20 -113 -30 l-39 -46 23 -49 c22 -45 22 -52 10 -90
-12 -36 -21 -45 -62 -62 -56 -23 -65 -43 -52 -114 9 -46 11 -48 57 -61 40 -11
51 -20 68 -54 21 -42 21 -59 -2 -115 -15 -37 -8 -49 54 -94 l38 -27 44 25 c45
25 45 25 91 7 40 -15 49 -24 67 -66 19 -48 20 -48 66 -48 77 0 90 7 104 58 12
38 21 51 57 70 41 23 44 24 77 8 18 -9 42 -16 52 -16 20 0 101 75 101 94 0 6
-11 29 -24 50 -23 38 -23 41 -9 83 13 37 23 48 62 66 45 22 46 24 49 71 4 60
-4 96 -21 96 -6 0 -28 5 -47 10 -28 8 -40 19 -57 53 -18 38 -19 47 -8 73 28
67 28 69 -17 113 -24 22 -49 41 -56 41 -7 0 -31 -9 -53 -20 -36 -19 -43 -19
-82 -7 -35 12 -47 23 -68 63 -25 48 -26 49 -75 51 -27 1 -58 -2 -70 -7z m181
-260 c81 -35 125 -100 133 -196 6 -78 -19 -136 -84 -193 -74 -65 -182 -78
-259 -31 -152 94 -169 275 -37 391 68 59 154 69 247 29z"/>
<path d="M182 1477 c-30 -38 -80 -172 -69 -184 6 -5 150 -43 153 -40 1 1 16
36 32 77 35 86 37 80 -57 132 -38 22 -51 25 -59 15z"/>
<path d="M85 1180 c-10 -16 -18 -137 -11 -173 6 -34 7 -34 54 -30 26 2 62 6
80 9 l33 5 -3 87 -3 86 -45 8 c-25 4 -57 9 -72 12 -15 3 -30 1 -33 -4z"/>
<path d="M161 883 l-63 -15 5 -43 c8 -52 52 -155 67 -155 9 0 128 56 138 65 8
7 -57 160 -69 162 -8 1 -43 -5 -78 -14z"/>
<path d="M362 560 c-109 -15 -222 -96 -222 -158 0 -43 83 -139 155 -179 33
-18 123 -53 200 -78 215 -70 423 -95 635 -75 250 23 382 76 569 228 l44 36
-23 18 c-38 31 -90 23 -187 -28 -206 -108 -351 -123 -593 -60 -188 48 -281 90
-264 118 9 14 49 9 120 -16 100 -35 168 -37 205 -7 41 33 36 36 -296 162 -92
35 -124 42 -195 44 -47 2 -113 0 -148 -5z"/>
<path d="M1258 470 c-16 -5 -65 -38 -110 -74 -73 -57 -92 -68 -155 -82 -40 -9
-73 -18 -73 -20 0 -3 10 -8 22 -13 50 -18 206 44 317 128 29 22 58 42 64 44
16 5 -2 27 -21 26 -9 0 -29 -4 -44 -9z"/>
<path d="M1416 460 c-15 -5 -36 -15 -45 -23 -45 -39 -208 -123 -316 -161 -17
-6 -17 -9 -5 -15 8 -5 35 -11 60 -15 52 -7 88 8 239 97 51 31 113 64 137 74
51 21 54 30 18 43 -30 12 -48 12 -88 0z"/>
<path d="M1415 358 c-61 -34 -125 -68 -142 -77 -18 -8 -33 -19 -33 -23 0 -10
-9 -11 85 7 108 20 313 118 295 140 -27 33 -89 19 -205 -47z"/>
</g>
</svg>
