<?xml version="1.0" standalone="no"?>
<!DOCTYPE svg PUBLIC "-//W3C//DTD SVG 20010904//EN"
 "http://www.w3.org/TR/2001/REC-SVG-20010904/DTD/svg10.dtd">
<svg version="1.0" xmlns="http://www.w3.org/2000/svg"
 width="700.000000pt" height="700.000000pt" viewBox="0 0 700.000000 700.000000"
 preserveAspectRatio="xMidYMid meet">
<metadata>
Created by potrace 1.14, written by Peter Selinger 2001-2017
</metadata>
<g transform="translate(0.000000,700.000000) scale(0.100000,-0.100000)"
fill="#000000" stroke="none">
<path d="M3037 6714 c-1 -1 -42 -4 -92 -8 -168 -11 -183 -22 -171 -134 9 -80
67 -436 72 -442 3 -2 154 -5 337 -6 411 -2 590 -13 742 -47 275 -63 593 -222
850 -427 108 -86 336 -315 419 -420 37 -47 73 -92 79 -100 16 -19 137 -203
164 -250 45 -76 132 -260 168 -355 69 -185 79 -273 79 -690 1 -309 -9 -486
-27 -524 -11 -23 -18 -26 -60 -23 -26 1 -96 18 -155 38 -277 91 -367 114 -391
100 -15 -10 28 -154 228 -756 170 -510 209 -603 259 -616 16 -5 64 14 166 64
150 74 526 277 659 356 43 25 80 46 82 46 7 0 280 164 324 195 25 17 46 36 49
43 3 10 -37 31 -183 97 -16 8 -91 39 -165 71 -162 68 -246 109 -256 126 -8 12
-7 199 1 288 2 25 7 88 10 140 3 52 7 109 10 125 12 89 20 261 19 420 -1 174
-4 204 -48 420 -2 11 -16 65 -30 120 -122 478 -358 882 -740 1267 -387 390
-737 603 -1220 744 -112 32 -308 76 -401 89 -22 3 -50 8 -61 10 -12 3 -50 7
-85 11 -35 3 -74 7 -87 9 -55 9 -536 26 -545 19z"/>
<path d="M2210 6544 c-160 -54 -490 -232 -490 -264 0 -25 248 -434 273 -451
35 -24 396 133 491 214 l39 33 -18 84 c-21 106 -19 96 -50 214 -54 205 -83
225 -245 170z"/>
<path d="M1348 6020 c-102 -68 -428 -436 -428 -484 0 -7 19 -30 43 -53 62 -60
345 -293 355 -293 5 0 104 97 220 215 l212 216 -52 67 c-104 134 -192 247
-198 252 -3 3 -20 24 -39 48 -49 63 -61 67 -113 32z"/>
<path d="M3100 5377 c-3 -3 -23 -6 -45 -8 -94 -6 -132 -50 -181 -207 -32 -103
-42 -122 -80 -159 -50 -49 -179 -114 -238 -120 -30 -4 -64 3 -116 22 -220 79
-258 77 -353 -18 -38 -39 -61 -66 -162 -186 -16 -20 -34 -39 -39 -43 -5 -3 5
-37 23 -75 19 -37 44 -93 58 -123 14 -30 29 -63 35 -74 47 -88 -10 -301 -99
-375 -21 -17 -41 -31 -45 -31 -4 0 -46 -19 -94 -42 -159 -76 -190 -124 -181
-280 3 -51 8 -100 11 -108 3 -8 8 -28 11 -45 3 -16 8 -37 10 -45 2 -8 4 -18 4
-22 1 -3 13 -20 27 -37 20 -24 47 -37 127 -62 159 -48 202 -81 261 -199 66
-131 67 -210 6 -365 -65 -164 -50 -196 165 -354 50 -37 103 -74 118 -84 l28
-18 107 60 c190 106 204 109 343 57 159 -60 189 -90 269 -270 61 -136 62 -137
255 -132 83 2 168 9 190 16 62 19 96 63 134 175 53 158 91 199 260 284 89 45
109 44 226 -9 109 -49 160 -58 207 -34 80 41 259 208 300 280 15 28 15 32 -7
84 -13 31 -44 91 -69 133 -58 97 -67 137 -49 202 7 28 15 57 17 65 13 49 58
131 90 162 20 19 78 56 128 82 126 63 147 81 162 140 17 66 20 284 5 351 -13
60 -39 95 -69 95 -26 0 -24 0 -62 11 -18 5 -46 12 -63 14 -60 11 -149 63 -183
110 -48 64 -102 191 -102 242 0 27 15 81 41 145 67 168 64 201 -30 301 -54 58
-173 157 -215 179 -38 20 -56 15 -225 -63 -53 -24 -112 -44 -134 -45 -52 -2
-170 30 -224 61 -45 27 -110 96 -133 141 -47 95 -105 183 -132 199 -23 13 -60
19 -157 22 -69 3 -128 3 -131 0z m296 -864 c128 -23 255 -73 354 -138 224
-146 344 -396 335 -700 -3 -137 -8 -166 -41 -252 -48 -128 -192 -306 -314
-389 -301 -205 -649 -208 -913 -10 -337 253 -454 627 -306 981 81 196 256 378
445 464 121 55 291 72 440 44z"/>
<path d="M634 5163 c-69 -75 -244 -511 -244 -610 0 -34 13 -38 305 -114 246
-63 229 -62 248 -25 36 70 168 414 174 452 8 60 -16 97 -97 150 -96 62 -315
174 -340 174 -12 0 -32 -12 -46 -27z"/>
<path d="M318 4144 c-20 -6 -35 -47 -44 -117 -3 -29 -8 -63 -10 -77 -12 -69
-15 -363 -5 -426 17 -96 27 -108 98 -108 78 0 195 11 328 31 61 9 118 16 127
15 17 -1 42 30 33 39 -2 2 -7 99 -10 214 -4 116 -8 244 -9 285 l-3 75 -159 27
c-87 15 -172 30 -189 33 -53 9 -139 14 -157 9z"/>
<path d="M760 3133 c-14 -2 -112 -24 -218 -49 -107 -24 -195 -44 -196 -44 -5
0 2 -65 15 -145 21 -128 85 -312 156 -448 41 -78 76 -111 101 -97 9 5 51 23
92 41 91 38 351 167 364 179 12 12 -6 81 -51 194 -46 118 -149 335 -170 358
-15 17 -40 20 -93 11z"/>
<path d="M1418 1975 c-2 -1 -37 -5 -78 -9 -75 -5 -119 -12 -152 -22 -10 -3
-30 -7 -45 -10 -84 -15 -270 -98 -378 -169 -84 -55 -216 -190 -246 -250 -50
-104 -26 -198 91 -354 159 -210 366 -369 601 -461 30 -12 68 -27 84 -35 17 -7
46 -18 65 -25 19 -7 44 -16 55 -20 149 -60 589 -201 705 -225 8 -2 62 -15 120
-28 58 -14 130 -30 160 -36 30 -6 66 -14 80 -16 31 -7 192 -33 245 -40 22 -3
51 -8 65 -10 14 -2 57 -7 95 -10 39 -4 81 -8 95 -11 115 -19 621 -25 820 -11
196 15 296 24 341 32 8 2 42 6 75 9 79 8 268 42 379 67 366 83 673 218 999
439 110 75 369 270 386 290 3 3 31 27 62 52 l57 46 -42 34 c-88 72 -147 96
-232 92 -122 -5 -218 -39 -480 -171 -229 -115 -501 -226 -603 -248 -9 -2 -44
-10 -77 -19 -278 -72 -668 -80 -965 -21 -59 12 -77 15 -105 20 -64 11 -95 18
-250 56 -652 161 -1013 315 -981 417 19 60 138 45 439 -52 299 -97 497 -115
637 -58 36 14 103 70 117 97 11 19 10 27 -7 48 -24 31 -156 99 -310 161 -63
26 -124 51 -135 56 -29 13 -556 214 -714 272 -299 109 -393 125 -743 125 -125
1 -228 0 -230 -2z"/>
<path d="M4465 1661 c-38 -10 -86 -26 -105 -35 -48 -25 -208 -136 -310 -216
-303 -235 -347 -257 -670 -335 -79 -20 -148 -39 -153 -44 -6 -6 8 -18 34 -32
95 -48 257 -25 502 73 97 38 279 125 347 166 19 12 49 29 65 38 33 19 164 104
180 117 48 40 210 154 247 176 53 29 59 47 25 79 -31 29 -79 33 -162 13z"/>
<path d="M4998 1621 c-78 -21 -166 -62 -206 -96 -32 -26 -160 -115 -167 -115
-3 0 -33 -17 -67 -38 -191 -117 -664 -337 -891 -416 -25 -8 -17 -28 18 -45 51
-25 197 -53 275 -52 127 0 278 61 580 237 74 43 200 116 280 162 80 46 227
124 326 173 100 49 187 95 193 103 18 22 3 43 -47 64 -110 47 -184 53 -294 23z"/>
<path d="M5470 1473 c-126 -20 -296 -95 -615 -273 -66 -37 -199 -109 -295
-160 -177 -94 -220 -123 -220 -147 0 -20 16 -19 235 22 205 38 466 126 701
235 47 22 87 40 89 40 8 0 196 107 225 129 47 35 80 69 80 85 0 15 -37 50 -65
61 -24 9 -101 13 -135 8z"/>
</g>
</svg>
